<svg id="Capa_1" data-name="Capa 1" xmlns="http://www.w3.org/2000/svg" viewBox="0 0 120.33 102.86"><defs><style>.cls-1{fill:#c25bc4;}.cls-2{fill:#3a4ca6;}.cls-3{fill:#80ace9;}.cls-4{fill:#414bb3;}.cls-5{fill:#a87ad2;}.cls-6{fill:#de38b5;}.cls-7{fill:#e434b3;}.cls-8{fill:#75baf1;}.cls-9{fill:#b472ce;}.cls-10{fill:#4645c1;}.cls-11{fill:#4b41d1;}.cls-12{fill:#89a2e4;}.cls-13{fill:#dc3eb7;}.cls-14{fill:#ec2aae;}.cls-15{fill:#f323ab;}.cls-16{fill:#79b4ed;}.cls-17{fill:#3f4ab1;}.cls-18{fill:#543ee4;}.cls-19{fill:#d447bb;}.cls-20{fill:#9691dd;}.cls-21{fill:#c658c3;}.cls-22{fill:#a281d5;}.cls-23{fill:#ba66c9;}.cls-24{fill:#8d96e0;}.cls-25{fill:#ce50bf;}.cls-26{fill:#9a87d8;}.cls-27{fill:#4145bb;}.cls-28{fill:#4844c6;}.cls-29{fill:#6252f1;}</style></defs><path class="cls-1" d="M916.59,493.81l-1.05-.9c0-.76,0-1.52,0-2.28l.13-5.88c1.37-.4,2.88-1.38,4.07-1.09,6.14,1.5,12.2,3.34,18.29,5q0,6.21,0,12.4c-1.26-1.15-2.33-2.83-3.81-3.36-4.48-1.6-9.1-2.83-13.72-4A14.49,14.49,0,0,0,916.59,493.81Z" transform="translate(-817.79 -458.19)"/><path class="cls-2" d="M847.07,507.22l2.25-6.66,17.84,8.12-3.06,9.76-17.55-6.83Z" transform="translate(-817.79 -458.19)"/><path class="cls-2" d="M893.14,495.24q2.25-4.37,4.52-8.72l15.78,9.34L908,504.75Z" transform="translate(-817.79 -458.19)"/><path class="cls-3" d="M827,546.37c-.5-2.36-1-4.71-1.52-7.07l21.82,1q.42,3.48.85,7Z" transform="translate(-817.79 -458.19)"/><path class="cls-4" d="M847.07,507.22l-.52,4.39,17.55,6.83-2.4,7.2-16.31-6.22-1-3,.87-7.82Z" transform="translate(-817.79 -458.19)"/><path class="cls-5" d="M938.07,488.71c-6.09-1.71-12.15-3.55-18.29-5-1.19-.29-2.7.69-4.07,1.09l-.8-.14-.15-7.91c2.7.52,5.41,1,8.1,1.56,4.74,1.05,9.46,2.19,14.19,3.29Z" transform="translate(-817.79 -458.19)"/><path class="cls-6" d="M916.59,493.81a14.49,14.49,0,0,1,4-.08c4.62,1.19,9.24,2.42,13.72,4,1.48.53,2.55,2.21,3.81,3.36L935,505.64l-17.51-5Z" transform="translate(-817.79 -458.19)"/><path class="cls-7" d="M839.62,471.74l.66,6-22-2q-.25-3-.5-6Z" transform="translate(-817.79 -458.19)"/><path class="cls-5" d="M845.24,508.59l-.87,7.82-21.74-2c-.15-1.64-.31-3.28-.47-4.92,4.71.31,9.43.87,14.14.82,2.56,0,5.11-1.1,7.67-1.7Z" transform="translate(-817.79 -458.19)"/><path class="cls-8" d="M850.1,559.14c-1.23.67-2.5,2-3.7,1.91-5.91-.26-11.14-2.28-15.09-6.94,1.63-.91,3.24-2.52,4.91-2.59a110.55,110.55,0,0,1,12,.69C848.87,554.52,849.48,556.83,850.1,559.14Z" transform="translate(-817.79 -458.19)"/><path class="cls-9" d="M844,508.65c-2.56.6-5.11,1.67-7.67,1.7-4.71,0-9.43-.51-14.14-.82q-.37-3-.77-6c2.58.26,5.18.87,7.73.71,4.69-.3,9.54,2.19,14.09-.7Z" transform="translate(-817.79 -458.19)"/><path class="cls-10" d="M845.39,519.42l16.31,6.22-2.37,6.78-13-4.06c-.33-1-.67-2-1-3l-.18-3.91Z" transform="translate(-817.79 -458.19)"/><path class="cls-11" d="M914.76,476.7l.15,7.91c-1.82-.55-3.67-1-5.43-1.67-2.65-1-5.22-2.21-7.83-3.33q2.36-4.51,4.72-9l7.36,2.19c.29,0,.57.06.85.07Z" transform="translate(-817.79 -458.19)"/><path class="cls-12" d="M847.25,540.28l-21.82-1q-.33-3-.68-6l21.67,1.9,1,2.08Z" transform="translate(-817.79 -458.19)"/><path class="cls-13" d="M818.29,475.74l22,2c.19,1.65.38,3.3.58,4.95l-22-2Z" transform="translate(-817.79 -458.19)"/><path class="cls-14" d="M839.62,471.74l-21.83-2,2.4-7.27c2.13,1.1,4.17,2.87,6.4,3.16,3.89.51,7.9.1,11.85.08Z" transform="translate(-817.79 -458.19)"/><path class="cls-3" d="M929.78,464.7l5.69,8-21.7-6c-.29-1.65-.57-3.31-.85-5,3,.85,6,1.92,9,2.47A60.17,60.17,0,0,0,929.78,464.7Z" transform="translate(-817.79 -458.19)"/><path class="cls-15" d="M863.45,459.48c7.53-2.63,13.39.28,18.51,5.61-2.14.53-4.28,1.47-6.43,1.51-3.53,0-7.06-.47-10.6-.76l-1-2.08Z" transform="translate(-817.79 -458.19)"/><path class="cls-16" d="M848.25,552.21a110.55,110.55,0,0,0-12-.69c-1.67.07-3.28,1.68-4.91,2.59L827,546.37l21.14.88.39.92Z" transform="translate(-817.79 -458.19)"/><path class="cls-17" d="M867.16,508.68l-17.84-8.12,1.76-5c4.08,1.55,8.14,3.21,12.28,4.58,1.47.48,3.16.26,4.75.35l.81.13.15,3.92-1.1,3.81A3.39,3.39,0,0,1,867.16,508.68Z" transform="translate(-817.79 -458.19)"/><path class="cls-15" d="M838.44,465.71c-4,0-8,.43-11.85-.08-2.23-.29-4.27-2.06-6.4-3.16C826.71,455.64,835.27,457.16,838.44,465.71Z" transform="translate(-817.79 -458.19)"/><path class="cls-18" d="M863.94,463.76l1,2.08c.21,1.37.41,2.74.61,4.11l.35,2.81c.08,1.65.15,3.3.23,4.94-.06,1-.13,2-.19,3l-9-2q2.42-7.51,4.84-15Z" transform="translate(-817.79 -458.19)"/><path class="cls-19" d="M818.83,480.65l22,2c.14,1.33.29,2.66.44,4a18.17,18.17,0,0,1-4.32.69c-5.88-.45-11.75-1.11-17.62-1.69Z" transform="translate(-817.79 -458.19)"/><path class="cls-20" d="M845.38,525.32l1,3-.18,2-21.85-1c-.2-1.66-.4-3.31-.59-5Z" transform="translate(-817.79 -458.19)"/><path class="cls-21" d="M841.88,491.6c.16,1.66.33,3.32.49,5l-21.84-1-.57-5Z" transform="translate(-817.79 -458.19)"/><path class="cls-22" d="M845.39,519.42c-.07.66-.14,1.33-.2,2l-21.94-2c-.21-1.66-.41-3.33-.62-5l21.74,2Z" transform="translate(-817.79 -458.19)"/><path class="cls-5" d="M868.91,500.61l-.8-.12c0-1.65,0-3.3,0-4.94,1.29.17,2.58.44,3.88.5,6.15.29,12.29.51,18.44.75l1.36-.23-.12,2.93-.79,3Z" transform="translate(-817.79 -458.19)"/><path class="cls-8" d="M894,531.29c-5.85,2-13.53-.88-18.1-6.83,1.73-.34,3.5-1.09,5.18-.93,4,.39,8,1.2,12,1.85.14.31.28.63.41.94Z" transform="translate(-817.79 -458.19)"/><path class="cls-23" d="M843.21,503.54c-4.55,2.89-9.4.4-14.09.7-2.55.16-5.15-.45-7.73-.71-.18-1.66-.35-3.32-.54-5l22,2Z" transform="translate(-817.79 -458.19)"/><path class="cls-11" d="M846.2,530.36l.18-2,13,4.06c-.8,2.29-1.6,4.59-2.41,6.88l-9.53-2c-.32-.7-.65-1.39-1-2.08C846.34,533.6,846.27,532,846.2,530.36Z" transform="translate(-817.79 -458.19)"/><path class="cls-13" d="M866.12,477.7c-.08-1.64-.15-3.29-.23-4.94l21.88,1.95c.28,1.65.57,3.3.86,4.94Z" transform="translate(-817.79 -458.19)"/><path class="cls-24" d="M846.2,530.36c.07,1.62.14,3.24.22,4.87l-21.67-1.9c-.13-1.32-.27-2.65-.4-4Z" transform="translate(-817.79 -458.19)"/><path class="cls-25" d="M841.88,491.6l-21.92-1-.6-5c5.87.58,11.74,1.24,17.62,1.69a18.17,18.17,0,0,0,4.32-.69C841.5,488.3,841.69,490,841.88,491.6Z" transform="translate(-817.79 -458.19)"/><path class="cls-26" d="M823.25,519.45l21.94,2,.18,3.91-21.61-.93Z" transform="translate(-817.79 -458.19)"/><path class="cls-27" d="M868.16,495.55c0,1.64,0,3.29,0,4.94-1.59-.1-3.28.12-4.75-.36-4.14-1.37-8.2-3-12.28-4.58.58-1.68,1.16-3.37,1.75-5.05l14.93,5.17Z" transform="translate(-817.79 -458.19)"/><path class="cls-4" d="M913.44,495.86l-15.78-9.34,3.06-5.13,14.86,9.24c0,.76,0,1.52,0,2.28Z" transform="translate(-817.79 -458.19)"/><path class="cls-3" d="M872.11,519.43c-.47-1.63-.93-3.26-1.4-4.89,1.92.19,3.83.5,5.75.55,5.17.14,10.35.18,15.52.26l.88,1.09-.12,4Z" transform="translate(-817.79 -458.19)"/><path class="cls-21" d="M889,483.67c.08,1.3.17,2.59.25,3.89l-22.2-1.91-.19-3.95Z" transform="translate(-817.79 -458.19)"/><path class="cls-9" d="M890.48,496.8c-6.15-.24-12.29-.46-18.44-.75-1.3-.06-2.59-.33-3.88-.5l-.4.12c.08-1.36.15-2.71.23-4.06l22,2Z" transform="translate(-817.79 -458.19)"/><path class="cls-28" d="M868,491.61c-.08,1.35-.15,2.7-.23,4.06l-14.93-5.17,1.89-6,12.18,4.2c.3,0,.59.07.89.09Z" transform="translate(-817.79 -458.19)"/><path class="cls-25" d="M889,483.67l-22.14-2-1-1c.06-1,.13-2,.19-3l22.51,1.95Z" transform="translate(-817.79 -458.19)"/><path class="cls-11" d="M865.93,480.72l1,1c.06,1.32.12,2.63.19,3.95l-.18,3-12.17-4.2,2.2-5.79Z" transform="translate(-817.79 -458.19)"/><path class="cls-14" d="M917.47,500.65l17.51,5C928.1,510.86,920.53,508.7,917.47,500.65Z" transform="translate(-817.79 -458.19)"/><path class="cls-16" d="M872.11,519.43l20.64,1c.09,1.65.19,3.3.28,5-4-.65-8-1.46-12-1.85-1.68-.16-3.45.59-5.18.93C874.63,522.78,873.37,521.11,872.11,519.43Z" transform="translate(-817.79 -458.19)"/><path class="cls-14" d="M865.54,470c-.2-1.37-.4-2.74-.61-4.11,3.54.29,7.07.81,10.6.76,2.15,0,4.29-1,6.43-1.51l4,5.65Z" transform="translate(-817.79 -458.19)"/><path class="cls-1" d="M842.85,500.54l-22-2c-.1-1-.21-2-.32-3l21.84,1Z" transform="translate(-817.79 -458.19)"/><path class="cls-20" d="M868,508.34c.37-1.27.73-2.54,1.1-3.81l22,2,.18,2.86c-3.87-.26-7.74-.61-11.61-.73-3.24-.11-6.49.05-9.73.09Z" transform="translate(-817.79 -458.19)"/><path class="cls-18" d="M847.39,537.31l9.53,2-3.78,8.94-4.65-.07-.39-.92q-.44-3.5-.85-7C847.29,539.29,847.34,538.3,847.39,537.31Z" transform="translate(-817.79 -458.19)"/><path class="cls-24" d="M869.88,508.73c3.24,0,6.49-.2,9.73-.09,3.87.12,7.74.47,11.61.73a8.08,8.08,0,0,1,.86.08c0,1.34-.07,2.67-.1,4l-21.94-2Z" transform="translate(-817.79 -458.19)"/><path class="cls-10" d="M915.58,490.63l-14.86-9.24.93-1.78c2.61,1.12,5.18,2.31,7.83,3.33,1.76.68,3.61,1.12,5.43,1.67l.8.14Q915.65,487.69,915.58,490.63Z" transform="translate(-817.79 -458.19)"/><path class="cls-26" d="M914.76,476.7c-.06-1.28-.12-2.57-.17-3.86,1.42.31,2.85.55,4.25.93,6,1.62,12,3.28,18,4.92l.24,2.86c-4.73-1.1-9.45-2.24-14.19-3.29C920.17,477.67,917.46,477.22,914.76,476.7Z" transform="translate(-817.79 -458.19)"/><path class="cls-7" d="M865.54,470l20.39.79c.61,1.33,1.23,2.65,1.84,4l-21.88-1.95C865.77,471.82,865.66,470.89,865.54,470Z" transform="translate(-817.79 -458.19)"/><path class="cls-28" d="M892.09,509.45a8.52,8.52,0,0,0-.87-.08l-.18-2.86.33-3c2.21.89,4.43,1.78,6.64,2.69,2.68,1.1,5.35,2.23,8,3.34q-1,2-2.08,3.95Z" transform="translate(-817.79 -458.19)"/><path class="cls-16" d="M929.78,464.7a60.17,60.17,0,0,1-7.85-.42c-3-.55-6-1.62-9-2.47-.08-.64-.15-1.27-.23-1.9C917.35,457,925.58,459.26,929.78,464.7Z" transform="translate(-817.79 -458.19)"/><path class="cls-23" d="M868,491.61c-.07-.95-.13-1.9-.19-2.85l21.91,1.84c.11,1,.21,2,.32,3Z" transform="translate(-817.79 -458.19)"/><path class="cls-12" d="M870,511.48l21.94,2v1.89c-5.17-.08-10.35-.12-15.52-.26-1.92-.05-3.83-.36-5.75-.55C870.48,513.52,870.26,512.5,870,511.48Z" transform="translate(-817.79 -458.19)"/><path class="cls-1" d="M889.71,490.6l-21.91-1.84c-.31,0-.6-.05-.9-.09.05-1,.11-2,.17-3l22.2,1.91C889.42,488.58,889.57,489.59,889.71,490.6Z" transform="translate(-817.79 -458.19)"/><path class="cls-17" d="M891.72,499.5l.12-2.93c.43-.45.87-.89,1.3-1.33L908,504.75c-.34.93-.69,1.86-1,2.79Z" transform="translate(-817.79 -458.19)"/><path class="cls-11" d="M892,515.35v-1.89c0-1.34.07-2.67.1-4L904,513.5l-2.67,5.09-8.43-2.15Z" transform="translate(-817.79 -458.19)"/><path class="cls-27" d="M891.72,499.5l15.2,8-.88,2c-2.68-1.11-5.35-2.24-8-3.34-2.21-.91-4.43-1.8-6.64-2.69l-.44-1Z" transform="translate(-817.79 -458.19)"/><path class="cls-20" d="M936.81,478.69c-6-1.64-12-3.3-18-4.92-1.4-.38-2.83-.62-4.25-.93-.29,0-.57,0-.86-.07,0-1,.1-2,.14-3l22.53,6Z" transform="translate(-817.79 -458.19)"/><path class="cls-18" d="M892.86,516.44l8.43,2.15-5.24,9.84-2.61-2.11c-.13-.31-.27-.63-.41-.94-.09-1.65-.19-3.3-.28-5C892.78,519.1,892.82,517.77,892.86,516.44Z" transform="translate(-817.79 -458.19)"/><path class="cls-18" d="M913.87,469.75c0,1-.09,2-.14,3l-7.36-2.19,6.32-10.67c.08.63.15,1.26.23,1.9.28,1.65.56,3.31.85,5C913.8,467.76,913.84,468.76,913.87,469.75Z" transform="translate(-817.79 -458.19)"/><path class="cls-12" d="M913.87,469.75c0-1-.07-2-.1-3l21.7,6,.93,3Z" transform="translate(-817.79 -458.19)"/><path class="cls-29" d="M848.49,548.17l4.65.07-3,10.9c-.62-2.31-1.23-4.62-1.85-6.93Z" transform="translate(-817.79 -458.19)"/><path class="cls-29" d="M893.44,526.32l2.61,2.11L894,531.29Z" transform="translate(-817.79 -458.19)"/><path class="cls-29" d="M863.94,463.76l-2.18-.12,1.69-4.17C863.61,460.9,863.78,462.33,863.94,463.76Z" transform="translate(-817.79 -458.19)"/><path class="cls-26" d="M890.93,502.54l.44,1-.33,3-22-2-.15-3.92Z" transform="translate(-817.79 -458.19)"/></svg>