<svg id="Capa_1" data-name="Capa 1" xmlns="http://www.w3.org/2000/svg" viewBox="0 0 121.71 103.98"><defs><style>.cls-1{fill:#ad74d0;}.cls-2{fill:#4645c1;}</style></defs><path class="cls-1" d="M794.76,244.09c-1.89.65-3.86,2-5.66,1.84-9.59-1.09-17.74-9.57-18.9-19.24q-4-33.37-8-66.75c-1.08-9,1.34-14,7.27-16.31a10.06,10.06,0,0,1,13,6.76c2,8.11,3.16,16.46,4.46,24.74.83,5.28,1.24,10.62,1.93,15.92.09.71.76,1.34,1.17,2,.36,7.94.42,15.92,1.17,23.83C792.09,226,793.56,235,794.76,244.09Z" transform="translate(-761.94 -141.97)"/><path class="cls-1" d="M839.06,214.24c-4.74,3.14-9.48,1.47-13.5-1A21.43,21.43,0,0,1,815,197.11c-.19-1.52-1.25-2.93-1.92-4.4a95.27,95.27,0,0,0,0-10.28c-.41-4.08-1.37-8.1-2.1-12.14q-2.06-11.46-4.12-22.91c-.72-4.78,1.92-5.76,5.92-5.31,11.05,1.23,18.37,9.47,20.26,20.12.94,5.25,1.16,10.62,1.84,15.92a11.37,11.37,0,0,0,1.32,3Q837.63,197.68,839.06,214.24Z" transform="translate(-761.94 -141.97)"/><path class="cls-2" d="M806.86,147.38q2.05,11.46,4.12,22.91c.73,4,1.69,8.06,2.1,12.14a95.27,95.27,0,0,1,0,10.28c-3.71,10.71-7.38,21.44-11.17,32.12-2.29,6.45-4.76,12.84-7.16,19.26-1.2-9.07-2.67-18.1-3.53-27.2-.75-7.91-.81-15.89-1.17-23.83,3.14-8.8,6.36-17.57,9.39-26.4,2.13-6.23,4-12.56,6-18.82C805.58,147.57,806.39,147.53,806.86,147.38Z" transform="translate(-761.94 -141.97)"/><path class="cls-1" d="M857.23,143.88c4.22-2.7,12.12-.5,16.89,3.9,8.1,7.49,8.45,17.35,9.1,27.21a17.55,17.55,0,0,0,0,2.8c1.69,6.82-1.2,12-7.74,13.83a11.22,11.22,0,0,1-14-8.13c-.57-2.1-.91-4.25-1.35-6.38-.06-2.49,0-5-.22-7.48C859.08,161,858.13,152.46,857.23,143.88Z" transform="translate(-761.94 -141.97)"/><path class="cls-2" d="M857.23,143.88c.9,8.58,1.85,17.16,2.68,25.75.25,2.48.16,5,.22,7.48-5.18,9.76-10.27,19.56-15.57,29.25a84.3,84.3,0,0,1-5.5,7.88q-1.42-16.56-2.86-33.12c6-11.14,12-22.3,18-33.41A29.29,29.29,0,0,1,857.23,143.88Z" transform="translate(-761.94 -141.97)"/></svg>